<?xml version="1.0" encoding="UTF-8" standalone="no"?>
<!DOCTYPE svg PUBLIC "-//W3C//DTD SVG 1.1//EN" "http://www.w3.org/Graphics/SVG/1.1/DTD/svg11.dtd">
<svg width="100%" height="100%" viewBox="0 0 250 250" version="1.1" xmlns="http://www.w3.org/2000/svg" xmlns:xlink="http://www.w3.org/1999/xlink" xml:space="preserve" xmlns:serif="http://www.serif.com/" style="fill-rule:evenodd;clip-rule:evenodd;stroke-linejoin:round;stroke-miterlimit:2;">
    <g transform="matrix(1.37764,0,0,1.37764,-55.9794,-46.9244)">
        <g id="Layer1">
            <g>
                <path d="M116.862,54.68C118.921,54.429 120.989,55.073 122.543,56.449C124.096,57.825 124.985,59.8 124.985,61.875C124.996,86.469 124.996,163.063 124.996,187.657C124.996,189.735 124.106,191.713 122.55,193.091C120.994,194.469 118.923,195.114 116.86,194.863C81.847,190.708 54.653,160.887 54.653,124.766C54.653,88.644 81.847,58.824 116.862,54.68Z" style="fill:rgb(0,244,187);"/>
                <path d="M84.821,119.283C83.231,120.661 82.318,122.662 82.318,124.766C82.318,126.87 83.231,128.87 84.821,130.249C103.739,146.661 159.709,195.215 177.546,210.688C179.08,212.02 181.103,212.647 183.121,212.418C185.14,212.188 186.971,211.124 188.168,209.482C195.434,199.119 207.993,174.154 207.993,125C207.993,75.807 195.414,50.605 188.13,40.135C186.942,38.486 185.115,37.413 183.097,37.178C181.078,36.943 179.054,37.567 177.519,38.899C159.62,54.394 103.724,102.884 84.821,119.283Z" style="fill:rgb(0,42,74);"/>
                <g transform="matrix(0.929274,-5.22228e-20,5.22228e-20,0.929274,8.80807,8.8744)">
                    <path d="M200.559,185.61C199.502,187.945 197.366,189.613 194.843,190.072C192.321,190.531 189.734,189.723 187.922,187.909C173.495,173.474 143.037,142.987 130.549,130.487C127.501,127.436 127.502,122.492 130.552,119.443C143.052,106.944 173.549,76.447 187.986,62.01C189.803,60.193 192.398,59.386 194.925,59.851C197.453,60.317 199.589,61.997 200.639,64.342C208.702,83.491 213.609,106.223 214.345,124.712C215.212,146.5 210.441,163.93 200.559,185.61Z" style="fill:rgb(0,244,187);"/>
                </g>
            </g>
        </g>
    </g>
</svg>
